<svg data-name="Layer 1" xmlns="http://www.w3.org/2000/svg" viewBox="0 0 369.53 281.38"><defs><linearGradient id="a" x1="157.8" y1="392.22" x2="326.3" y2="-282.82" gradientUnits="userSpaceOnUse"><stop offset=".01"/><stop offset=".08" stop-opacity=".69"/><stop offset=".21" stop-opacity=".32"/><stop offset="1" stop-opacity="0"/></linearGradient></defs><path d="M163.84.27c-1.72-.06-3.43-.1-5.13-.14-27.29-.57-55.14.35-80.91 9.34S28.28 36.68 18.37 62.08c-5.13 13.19-6.34 27.51-8.25 41.53C6.55 129.9.34 155.96.01 182.48s6 54.44 24.21 73.76c31.59 33.56 75.41 13.67 113 4.63a157.66 157.66 0 0168-1.21c14.84 3 29.17 8.17 44 11.35 10.67 2.29 21.77 3.55 32.64 2.14 10.44-1.35 18.49-6.33 28-10.34 18.1-7.68 36.4-17.46 47.94-33.95a67.46 67.46 0 0011.48-44.18c-3.55-41.16-42-58.44-61.85-90.79-11.56-18.8-19.44-40.12-34.31-56.42C246.44 8.27 203.7 1.54 163.84.27z" fill="#667eea" opacity=".18" style="isolation:isolate"/><path d="M222.77 41.75V245.9a17.83 17.83 0 01-17.83 17.83h-88.36a17.83 17.83 0 01-17.83-17.83V41.75a17.83 17.83 0 0117.83-17.84h88.36a17.83 17.83 0 0117.83 17.84z" fill="#667eea"/><rect x="101.19" y="26.94" width="119.13" height="233.39" rx="17.24" fill="#473f47"/><path d="M217.08 46.13v192.61a16.47 16.47 0 01-16.63 16.3h-79.31a16.71 16.71 0 01-8.27-2.16 16.22 16.22 0 01-8.38-14.14V46.13a16.48 16.48 0 0116.65-16.3h13.4v2.37a7.89 7.89 0 005 7.17 8.32 8.32 0 003.05.58h36.84a8 8 0 008.05-7.88v-2.24h13a16.77 16.77 0 0111.49 4.52 16.1 16.1 0 015.11 11.78z" fill="#fff"/><rect x="118.47" y="160.84" width="48.99" height="2.91" rx="1.45" fill="#667eea" opacity=".31" style="isolation:isolate"/><rect x="118.47" y="167.95" width="48.99" height="2.91" rx="1.45" fill="#667eea" opacity=".31" style="isolation:isolate"/><path fill="#667eea" opacity=".18" style="isolation:isolate" d="M98.74 134.65h124.03v7.79H98.74z"/><path d="M80.19 115h151.06a10.13 10.13 0 0110.13 10.13 10.13 10.13 0 01-10.13 10.13H80.19V115z" fill="#667eea"/><path fill="#fff" d="M80.19 115h121.98v20.25H80.19z"/><circle cx="220.28" cy="123.98" r="4.89" fill="none" stroke="#fff" stroke-miterlimit="10" stroke-width="1.45"/><path d="M224.75 131.93l-2-3.73" fill="none" stroke="#fff" stroke-miterlimit="10" stroke-width="1.45"/><rect x="118.47" y="153.63" width="78.84" height="4.68" rx="2.34" fill="#667eea"/><rect x="118.47" y="185.31" width="48.99" height="2.91" rx="1.45" fill="#667eea" opacity=".31" style="isolation:isolate"/><rect x="118.47" y="192.42" width="48.99" height="2.91" rx="1.45" fill="#667eea" opacity=".31" style="isolation:isolate"/><rect x="118.47" y="178.09" width="78.84" height="4.68" rx="2.34" fill="#667eea"/><rect x="118.47" y="209.77" width="48.99" height="2.91" rx="1.45" fill="#667eea" opacity=".31" style="isolation:isolate"/><rect x="118.47" y="216.89" width="48.99" height="2.91" rx="1.45" fill="#667eea" opacity=".31" style="isolation:isolate"/><rect x="118.47" y="202.56" width="78.84" height="4.68" rx="2.34" fill="#667eea"/><path d="M229.21 115.73a51.69 51.69 0 0115.91 2.49v-7.31a59.06 59.06 0 100 113.76v-7.31a52.06 52.06 0 11-15.91-101.63z" transform="translate(-22.35 -30.32)" fill="url(#a)" opacity=".41"/><path d="M210.01 193.68a59.06 59.06 0 1159.06-59 59.13 59.13 0 01-59.06 59zm0-111.12a52.06 52.06 0 1052.06 52.12 52.11 52.11 0 00-52.06-52.09z" fill="#667eea"/><path d="M290 222.13a6 6 0 01-4.28-1.79l-38.7-39.27a6 6 0 118.55-8.42l38.7 39.27a6 6 0 01-4.27 10.21z" fill="#667eea"/><path d="M308.54 234.61a7.06 7.06 0 01-10-.07l-45.56-46.24a5.88 5.88 0 01-.69-.82q-.18-.24-.33-.48a3.08 3.08 0 01.28-3.54 26.38 26.38 0 012.89-2.94 24.64 24.64 0 013.86-2.81 3.11 3.11 0 013.63.31 4.1 4.1 0 01.39.35l45.64 46.25a7.06 7.06 0 01-.11 9.99z" fill="#473f47"/><path d="M144.7 74.07v20.36a10.09 10.09 0 01-10.05 10.09h-35.9V63.98h35.9a10.09 10.09 0 0110.05 10.09z" fill="#667eea" opacity=".18" style="isolation:isolate"/><rect x="55.96" y="58.63" width="87" height="40.54" rx="10.09" fill="#fff"/><circle cx="139.91" cy="59.85" r="7.27" fill="#667eea"/><rect x="73.14" y="71.58" width="51.24" height="4.01" rx="2" fill="#667eea"/><rect x="73.14" y="82.25" width="51.24" height="4.01" rx="2" fill="#667eea"/><path d="M303.93 266.11a3.42 3.42 0 01.3 3.83 3.17 3.17 0 01-3.46 1.39 1.53 1.53 0 01-.62-.32c-.37-.36-.43-1-.78-1.36a2.58 2.58 0 00-1.27-.56 9.08 9.08 0 01-2.31-1.25.91.91 0 01-.29-.26.92.92 0 01-.11-.43 3.21 3.21 0 01.33-2.26 2.56 2.56 0 01.76-.63 3.68 3.68 0 011.83-.55 4.76 4.76 0 011.47.34 11.26 11.26 0 013.68 1.84" fill="#667eea"/><path d="M301.34 259.98l2.23 7.68s-.42 1.93-2.78 1.12-4.34-6.86-4.34-6.86z" fill="#fcbdba"/><path d="M277.8 276.04a9.44 9.44 0 00-1.84-.13 2.28 2.28 0 00-1.62.78 2.35 2.35 0 00.44 3 5.43 5.43 0 002.95 1.22 4.49 4.49 0 002 0c.83-.24 1.62-.93 2.45-.67a3.85 3.85 0 011 .61 2.76 2.76 0 003.74-.47 3.55 3.55 0 00.51-1.18c.35-1.33.19-3-.91-3.77-1.3-.93-2.31-.29-3.56.14a12.35 12.35 0 01-5.16.47z" fill="#667eea"/><path d="M278.88 268.59l3.26 8s1.87 1.13 3.2.63l1.31-.54-1.15-11.17zM254.65 187.27c-.22-.29-.51-.61-.86-.56s-.41.19-.62.13a.64.64 0 01-.32-.25 10.08 10.08 0 00-1.65-1.41 2.89 2.89 0 00-1.28-.65 1.75 1.75 0 00-1.67 1 3 3 0 00-.21 2 7.44 7.44 0 00.8 1.91 5.68 5.68 0 00.81 1.24c1 1.09 2.66 1.27 4 1.94a1.14 1.14 0 00.47.16.92.92 0 00.67-.49 5.13 5.13 0 00.91-2.5 4.37 4.37 0 00-1.05-2.52zM267.65 178.6a.66.66 0 00-.48.05 1.2 1.2 0 00-.22.23c-.28.3-.74.31-1.12.48a1.94 1.94 0 00-1 1.23 5.72 5.72 0 00-.17 1.61 2.21 2.21 0 00.09.85.74.74 0 00.62.5 1.53 1.53 0 00.63-.27 1.88 1.88 0 011.25-.2 6.9 6.9 0 011.56.73 1.61 1.61 0 001.64 0 2 2 0 00.51-.72c.45-1 1-2.11 0-2.92a6.79 6.79 0 00-3.31-1.57z" fill="#fcbdba"/><path d="M297.37 215.35a112.32 112.32 0 01-1.41 12.55c-.9 4.12-1.44 8.8-1.44 8.8l8.33 24s-5.07 3.37-8.33 2.06-11.51-19.71-11.51-19.71l-3.14-20.93 8.31-9.54z" fill="#473f47"/><path d="M274.38 213.68s-5.94 19.47-5.94 24.53 7.12 30 7.12 30 7.73 2.62 9.54 0l1.81-2.62-4.35-25.1s6.16-13.1 7.25-16.47a36.45 36.45 0 001.41-6.37z" fill="#473f47"/><path d="M276.88 160.35a13.15 13.15 0 00-1.31 4.43 4.41 4.41 0 001.77 4 4.84 4.84 0 011.05.68c1.12 1.14-.16 3.21.48 4.69a2.21 2.21 0 002.76 1 3.68 3.68 0 002-2.43 11.32 11.32 0 00.38-3.29l.11-6.61a8.46 8.46 0 00-.67-4.31 4.29 4.29 0 00-4-2.16c-1.54.33-2.01 2.71-2.57 4z" fill="#fcbdba"/><path d="M253.82 193.35s12.68 11.33 13.58 11.33 6.53-7.12 6.53-7.12l.45 16.11a37.41 37.41 0 004.88 2.42c2.74 1.12 6.21 2.16 9.24 1.88 6.16-.56 8.87-2.62 8.87-2.62l-3.79-37.94s-7.18-5.17-9.63-4.38a15.12 15.12 0 01-5.31 0c-3.54-.46-7.16 4.38-7.16 4.38l-4.71 15.47-11.05-3.92a4.24 4.24 0 00-1.9 4.39z" fill="#667eea"/><path d="M277.95 153.18c1.33-1.21 4.34-1.71 5.81-1.87a8 8 0 016.35 1.86c2.4 2.28 2.65 6 2.62 9.42s-.08 7.09 1.92 9.69c1.72 2.22 4.53 3.14 6.72 4.85a9.48 9.48 0 013.8 6.82c.51 10.28-15.19 5.87-20.38 3.58a7.93 7.93 0 01-2.49-1.54 7.31 7.31 0 01-1.65-2.91 15.43 15.43 0 01.58-11.2c.24-.52.5-1.17.17-1.63a1.71 1.71 0 00-.66-.46 3.75 3.75 0 01-2.31-3.33 6.46 6.46 0 011.38-2.86 3.29 3.29 0 00.62-3c-.36-.81-1.22-1.21-1.86-1.8-1.12-1-1.93-3.69-1-5.13a2.55 2.55 0 01.38-.49z" fill="#f6a569"/></svg>