<svg xmlns="http://www.w3.org/2000/svg" xmlns:xlink="http://www.w3.org/1999/xlink" width="406" height="306" class="illustration styles_illustrationTablet__1DWOa" data-name="Layer 2" viewBox="0 0 400 300"><defs><linearGradient id="a" x1="176.52" x2="203.83" y1="140.83" y2="120.35" gradientUnits="userSpaceOnUse"><stop offset="0" stop-color="#aa4200" stop-opacity="0"/><stop offset=".98" stop-color="#aa003d"/></linearGradient><linearGradient xlink:href="#a" id="b" x1="94.18" x2="121.49" y1="211.07" y2="190.59"/><linearGradient xlink:href="#a" id="c" x1="243.87" x2="275.59" y1="213.95" y2="190.15"/><linearGradient xlink:href="#a" id="d" x1="181.29" x2="191.53" y1="277.56" y2="263.25"/></defs><path fill="#dd6f31" d="M194.28 289.5 14.56 183.29c-5.72-3.21-10.63-8.49-5.05-11.94l180.37-104c2.71-1.68 6.82-2.78 9.57-1.18L388.11 175.7c5.72 3.32 6.75 12.6 1 15.93L218 289.34a23.9 23.9 0 0 1-23.72.16Z"/><path fill="url(#a)" d="M213.82 100.1c-18.21 9.33-35.94 19.54-53.61 29.88l27 15c18.2-10.2 34.35-18.38 52.59-28.52Z" opacity=".32"/><path fill="url(#b)" d="m165.73 197.75-52.49-33.09-53.5 31.91 53.4 29.7c18.2-10.2 34.34-18.38 52.59-28.52Z" opacity=".32"/><path fill="#F56565" d="M90.66 204.4c.22.44 1.33 4.64 2.22 3.76s5.53 1.12 5.53 1.12l13-16.51-1.72-5.39H98"/><path fill="#F56565" d="m153.36 133.26 1.22-4.29 13.65-7.44V98.29c0-.46-13.2 7.76-13.2 7.76l-.62-1.3a31.2 31.2 0 0 0-4-10.05L160 77l-12.21-9.28L138.68 86l-.08.05a20.77 20.77 0 0 0-10.07.18V68.62l-17.46 9.69v18.37a77.26 77.26 0 0 0-9.32 10.73l-10.53-6.72-11.89 22.62 9.42 7.5-.8 3.8A103.72 103.72 0 0 0 85 146.83l-14 7.71v23.16l13.33-8a30 30 0 0 0 4.31 11.87l-10 17 12.66 9.58 8.9-17.46h11.1v17.46L128 198v-17.15a68.85 68.85 0 0 0 10-12.45l10 6.85 12.09-23.11-10-7.42 1-3.47c.91-2.68 1.65-5.35 2.27-7.99Z"/><path fill="#F56565" d="m185.02 107.96-15.45-9.33-3.84 5.7 5.97 12.5M164.82 184.93l-11.42-4.75v-6.92M128.08 217.84l-16.78-9.68 4.26-12.69 15.1 4.44-2.58 17.93zM147.81 67.67l16.78 9.68-9.21 18.34-10.07.18-2.33-18.52 4.83-9.68z"/><ellipse cx="137.53" cy="147.75" fill="#F56565" rx="13.02" ry="7.57" transform="rotate(-68.55 137.515 147.75)"/><path fill="#F56565" d="m111.07 78.31 16.78 9.68 17.46-9.69-16.78-9.68-17.46 9.69zM108 110.36l-16.78-9.68-11.89 22.63 16.78 9.68L108 110.36zM78.67 198.58l16.78 9.67 12.67 9.59-16.79-9.68-12.66-9.58z"/><path fill="#053855" d="M90.66 204.4c.22.44 1.33 4.64 2.22 3.76s5.53 1.12 5.53 1.12l13-16.51-1.72-5.39H98" opacity=".44"/><path fill="#F56565" d="m153.36 133.26 1.22-4.29 13.65-7.44V98.29c0-.46-13.2 7.76-13.2 7.76l-.62-1.3a31.2 31.2 0 0 0-4-10.05L160 77l-12.21-9.28L138.68 86l-.08.05a20.77 20.77 0 0 0-10.07.18V68.62l-17.46 9.69v18.37a77.26 77.26 0 0 0-9.32 10.73l-10.53-6.72-11.89 22.62 9.42 7.5-.8 3.8A103.72 103.72 0 0 0 85 146.83l-14 7.71v23.16l13.33-8a30 30 0 0 0 4.31 11.87l-10 17 12.66 9.58 8.9-17.46h11.1v17.46L128 198v-17.15a68.85 68.85 0 0 0 10-12.45l10 6.85 12.09-23.11-10-7.42 1-3.47c.91-2.68 1.65-5.35 2.27-7.99Z"/><path fill="#053855" d="m185.02 107.96-15.45-9.33-3.84 5.7 5.97 12.5" opacity=".44"/><path fill="#F56565" d="m164.82 184.93-11.42-4.75v-6.92M128.08 217.84l-16.78-9.68 4.26-12.69 15.1 4.44-2.58 17.93zM147.81 67.67l16.78 9.68-9.21 18.34-10.07.18-2.33-18.52 4.83-9.68z"/><ellipse cx="137.53" cy="147.75" fill="#F56565" rx="13.02" ry="7.57" transform="rotate(-68.55 137.515 147.75)"/><path fill="#F56565" d="m108 110.36-16.78-9.68-11.89 22.63 16.78 9.68L108 110.36zM78.67 198.58l16.78 9.67 12.67 9.59-16.79-9.68-12.66-9.58z"/><path fill="#053855" d="m153.36 133.26 1.22-4.29 13.65-7.44V98.29c0-.46-13.2 7.76-13.2 7.76l-.62-1.3a31.2 31.2 0 0 0-4-10.05L160 77l-12.21-9.28L138.68 86l-.08.05a20.77 20.77 0 0 0-10.07.18V68.62l-17.46 9.69v18.37a77.26 77.26 0 0 0-9.32 10.73l-10.53-6.72-11.89 22.62 9.42 7.5-.8 3.8A103.72 103.72 0 0 0 85 146.83l-14 7.71v23.16l13.33-8a30 30 0 0 0 4.31 11.87l-10 17 12.66 9.58 8.9-17.46h11.1v17.46L128 198v-17.15a68.85 68.85 0 0 0 10-12.45l10 6.85 12.09-23.11-10-7.42 1-3.47c.91-2.68 1.65-5.35 2.27-7.99Z" opacity=".44"/><path fill="#053855" d="m164.82 184.93-11.42-4.75v-6.92M128.08 217.84l-16.78-9.68 4.26-12.69 15.1 4.44-2.58 17.93z" opacity=".1"/><ellipse cx="137.53" cy="147.75" fill="#053855" opacity=".1" rx="13.02" ry="7.57" transform="rotate(-68.55 137.515 147.75)"/><path fill="#053855" d="m108 110.36-16.78-9.68-11.89 22.63 16.78 9.68L108 110.36zM78.67 198.58l16.78 9.67 12.67 9.59-16.79-9.68-12.66-9.58zM164.82 184.93l-11.42-4.75v-6.92" opacity=".1"/><path fill="#053855" d="m128.08 217.84-16.78-9.68 4.26-12.69 15.1 4.44-2.58 17.93z" opacity=".44"/><path fill="#F56565" d="m170.14 142.94 1.22-4.29 13.64-7.43V108c0-.46-13.2 7.76-13.2 7.76l-.62-1.3a31.2 31.2 0 0 0-4-10.05l9.61-17.75-12.21-9.28-9.13 18.3-.08.05a20.77 20.77 0 0 0-10.07.18V78.3L127.85 88v18.37a77.26 77.26 0 0 0-9.32 10.73L108 110.36 96.11 133l9.42 7.5-.8 3.8a103.72 103.72 0 0 0-2.92 12.23l-14 7.71v23.16l13.33-8a30 30 0 0 0 4.31 11.87l-10 17 12.66 9.58 8.9-17.46h11.07v17.46l16.66-10.15v-17.17a68.85 68.85 0 0 0 10.06-12.45l10 6.85 12.09-23.11-10-7.42 1-3.47c.87-2.69 1.63-5.36 2.25-7.99Z"/><ellipse cx="137.53" cy="147.75" fill="#053855" opacity=".44" rx="13.02" ry="7.57" transform="rotate(-68.55 137.515 147.75)"/><path fill="#053855" d="m78.67 198.58 16.78 9.67 12.67 9.59-16.79-9.68-12.66-9.58z" opacity=".44"/><path fill="#F56565" d="m111.07 78.31 16.78 9.68 17.46-9.69-16.78-9.68-17.46 9.69z"/><path fill="#053855" d="m111.07 78.24 16.75 9.74 17.49-9.62-16.75-9.74-17.49 9.62z" opacity=".44"/><path fill="#F56565" d="m71.03 154.54 16.78 9.67v23.17l-16.78-9.68v-23.16z"/><path fill="#053855" d="m71.03 154.54 16.78 9.67v23.17l-16.78-9.68v-23.16z" opacity=".44"/><path fill="#F56565" d="M192.6 106.22c.13.25.75 2.62 1.25 2.13s3.15.65 3.15.65l7.33-9.33-1-3h-6.6"/><path fill="#F56565" d="m228 66 .69-2.42 7.71-4.2V46.26c0-.26-7.46 4.38-7.46 4.38l-.35-.73a17.63 17.63 0 0 0-2.26-5.68l5.43-10-6.87-5.23-5.15 10.3a11.74 11.74 0 0 0-5.69.1v-9.9l-9.91 5.5v10.35a43.65 43.65 0 0 0-5.27 6.06l-6-3.8-6.67 12.79 5.32 4.24-.45 2.15a58.61 58.61 0 0 0-1.65 6.91l-7.91 4.3v13.13l7.49-4.5a17 17 0 0 0 2.44 6.71l-5.65 9.59 7.16 5.42 5-9.86h6.25v9.86l9.41-5.74v-9.7a38.9 38.9 0 0 0 5.68-7l5.71 3.83 6.83-13.06-5.67-4.19.56-2c.53-1.49.96-2.98 1.28-4.49Z"/><path fill="#F56565" d="m245.92 51.73-8.73-5.28-2.17 3.22 3.37 7.07M234.51 95.21l-6.46-2.68v-3.91M213.75 113.81l-9.49-5.47 2.41-7.17 8.53 2.51-1.45 10.13zM224.9 28.96l9.48 5.47-5.21 10.36-5.69.11-1.31-10.47 2.73-5.47z"/><ellipse cx="219.08" cy="74.21" fill="#F56565" rx="7.36" ry="4.27" transform="rotate(-68.55 219.072 74.21)"/><path fill="#F56565" d="m204.14 34.97 9.48 5.47 9.86-5.47L214 29.5l-9.86 5.47zM202.4 53.08l-9.48-5.47-6.72 12.79 9.48 5.46 6.72-12.78zM185.83 102.93l9.48 5.46 7.16 5.42-9.49-5.47-7.15-5.41z"/><path fill="#053855" d="M192.6 106.22c.13.25.75 2.62 1.25 2.13s3.15.65 3.15.65l7.33-9.33-1-3h-6.6" opacity=".44"/><path fill="#F56565" d="m228 66 .69-2.42 7.71-4.2V46.26c0-.26-7.46 4.38-7.46 4.38l-.35-.73a17.63 17.63 0 0 0-2.26-5.68l5.43-10-6.87-5.23-5.15 10.3a11.74 11.74 0 0 0-5.69.1v-9.9l-9.91 5.5v10.35a43.65 43.65 0 0 0-5.27 6.06l-6-3.8-6.67 12.79 5.32 4.24-.45 2.15a58.61 58.61 0 0 0-1.65 6.91l-7.91 4.3v13.13l7.49-4.5a17 17 0 0 0 2.44 6.71l-5.65 9.59 7.16 5.42 5-9.86h6.25v9.86l9.41-5.74v-9.7a38.9 38.9 0 0 0 5.68-7l5.71 3.83 6.83-13.06-5.67-4.19.56-2c.53-1.49.96-2.98 1.28-4.49Z"/><path fill="#053855" d="m245.92 51.73-8.73-5.28-2.17 3.22 3.37 7.07" opacity=".44"/><path fill="#F56565" d="m234.51 95.21-6.46-2.68v-3.91M213.75 113.81l-9.49-5.47 2.41-7.17 8.53 2.51-1.45 10.13zM224.9 28.96l9.48 5.47-5.21 10.36-5.69.11-1.31-10.47 2.73-5.47z"/><ellipse cx="219.08" cy="74.21" fill="#F56565" rx="7.36" ry="4.27" transform="rotate(-68.55 219.072 74.21)"/><path fill="#F56565" d="m202.4 53.08-9.48-5.47-6.72 12.79 9.48 5.46 6.72-12.78zM185.83 102.93l9.48 5.46 7.16 5.42-9.49-5.47-7.15-5.41z"/><path fill="#053855" d="m228 66 .69-2.42 7.71-4.2V46.26c0-.26-7.46 4.38-7.46 4.38l-.35-.73a17.63 17.63 0 0 0-2.26-5.68l5.43-10-6.87-5.23-5.15 10.3a11.74 11.74 0 0 0-5.69.1v-9.9l-9.91 5.5v10.35a43.65 43.65 0 0 0-5.27 6.06l-6-3.8-6.67 12.79 5.32 4.24-.45 2.15a58.61 58.61 0 0 0-1.65 6.91l-7.91 4.3v13.13l7.49-4.5a17 17 0 0 0 2.44 6.71l-5.65 9.59 7.16 5.42 5-9.86h6.25v9.86l9.41-5.74v-9.7a38.9 38.9 0 0 0 5.68-7l5.71 3.83 6.83-13.06-5.67-4.19.56-2c.53-1.49.96-2.98 1.28-4.49Z" opacity=".44"/><path fill="#053855" d="m234.51 95.21-6.46-2.68v-3.91M213.75 113.81l-9.49-5.47 2.41-7.17 8.53 2.51-1.45 10.13z" opacity=".1"/><ellipse cx="219.08" cy="74.21" fill="#053855" opacity=".1" rx="7.36" ry="4.27" transform="rotate(-68.55 219.072 74.21)"/><path fill="#053855" d="m202.4 53.08-9.48-5.47-6.72 12.79 9.48 5.46 6.72-12.78zM185.83 102.93l9.48 5.46 7.16 5.42-9.49-5.47-7.15-5.41zM234.51 95.21l-6.46-2.68v-3.91" opacity=".1"/><path fill="#053855" d="m213.75 113.81-9.49-5.47 2.41-7.17 8.53 2.51-1.45 10.13z" opacity=".44"/><path fill="#F56565" d="m237.51 71.49.69-2.42 7.71-4.2V51.73c0-.26-7.46 4.38-7.46 4.38l-.35-.73a17.63 17.63 0 0 0-2.26-5.68l5.43-10-6.9-5.24-5.16 10.34a11.74 11.74 0 0 0-5.69.1V35l-9.86 5.47v10.35a43.65 43.65 0 0 0-5.27 6.06l-6-3.8-6.72 12.78L201 70.1l-.45 2.15a58.61 58.61 0 0 0-1.65 6.91l-7.9 4.35V96.6l7.53-4.49a17 17 0 0 0 2.47 6.7l-5.65 9.59 7.16 5.42 5-9.86h6.25v9.86l9.41-5.74v-9.7a38.9 38.9 0 0 0 5.68-7l5.66 3.87 6.83-13.06-5.67-4.19.56-2c.5-1.51.93-3 1.28-4.51Z"/><ellipse cx="219.08" cy="74.21" fill="#053855" opacity=".44" rx="7.36" ry="4.27" transform="rotate(-68.55 219.072 74.21)"/><path fill="#053855" d="m185.83 102.93 9.48 5.46 7.16 5.42-9.49-5.47-7.15-5.41z" opacity=".44"/><path fill="#F56565" d="m204.14 34.97 9.48 5.47 9.86-5.47L214 29.5l-9.86 5.47z"/><path fill="#053855" d="m204.14 34.93 9.46 5.51 9.88-5.44-9.46-5.5-9.88 5.43z" opacity=".44"/><path fill="#F56565" d="m181.51 78.04 9.48 5.47V96.6l-9.48-5.47V78.04z"/><path fill="#053855" d="m181.51 78.04 9.48 5.47V96.6l-9.48-5.47V78.04z" opacity=".44"/><path fill="url(#c)" d="m324.46 195.1-64.58-26.53-53.5 31.91 53.4 29.7C278 220 306.22 205.23 324.46 195.1Z" opacity=".32"/><path fill="#ffc2a4" d="M346.13 134.64c-3-12.52-13.48-26-26.28-29.1a28.38 28.38 0 0 0-22.64 4.28c-7.67 5.32-9.4 13.45-13.84 21.07-8.19 14.05-28.77 21.13-33.71 36.54-3.32 10.36 3.1 20.44 10.93 26.79 26.43 21.44 69.52 9 82.89-21.57 4.98-11.36 5.72-25.23 2.65-38.01Z"/><path fill="#f2a07c" d="M346.17 134.41c-3-12.52-13.48-26-26.28-29.1-.57-.14-1.15-.22-1.73-.32a26.48 26.48 0 0 1 8.38 6.6c7.84 9.26 9.06 22.67 8.43 34.34-.31 5.67-1.25 11.52-3.92 16.6s-6.92 7.83-12.26 10c-4.9 2-9.29 3.83-13.53 7a42 42 0 0 1-8.22 5.19c-6.36 2.81-13.6 2.5-20.16.54a48.74 48.74 0 0 1-26.58-19.72 19.1 19.1 0 0 0-.6 1.65c-3.32 10.36 3.1 20.44 10.93 26.79 26.43 21.44 69.52 9 82.89-21.57 4.98-11.35 5.72-25.22 2.65-38Z"/><path fill="#F56565" d="M279.81 153.5s2.06-13.61 18.77-28.67c0 0 13.87 9.29 22.84 21.65 0 0-4.21 15.17-20.8 28 0 .03-15.75-12.31-20.81-20.98Z"/><path d="M321.42 146.48s-6.14 1.07-11.72 8.4-11.56 14.54-9.09 19.63c.01 0 13.53-8.51 20.81-28.03ZM298.31 160.91c-5.84-7.75-4.31-17.63-.72-26a.56.56 0 0 0-1-.43c-3.76 8.74-5.22 19 .86 27.11a.56.56 0 0 0 .86-.68Z" opacity=".27"/><path fill="#196132" d="m254.53 230.54-2-3.65s1.64-2.88 3.09-2.68-1.09 6.33-1.09 6.33Z"/><path fill="#196132" d="M255.42 209.65s-8.09 14.31-9 14.67-9-.66-10.31.17 6.67 4.5 9.4 5.54 5.71 1.38 6.4.57 2.86-5.94 3.65-5.24-1 5.18-1 5.18l2.89.21 6.3-18.75M251.5 212l-3.17-2.73s.56-3.27 2-3.58 1.17 6.31 1.17 6.31Z"/><path fill="#196132" d="M245 200.59s-2.58 7.71-3.32 8.37-8.69 2.48-9.62 3.7 7.81 1.94 10.73 2 5.88-.66 6.21-1.66.65-6.56 1.63-6.18.83 5.21.83 5.21l2.79-.79-.49-19.77"/><path fill="#f9ddb4" d="M282.06 143.52c1.32 1.27 4.41 18.93 2.35 27.41s-22.66 12-22.66 12L258 202.26a25.34 25.34 0 0 1-13.95-.49c-2.72-.88-1.86-25.61.54-29.93s30-19.28 30-19.28"/><path fill="#fff0d7" d="M298.07 148.78c1.32 1.27 5.12 11.2 0 23.39-3.38 8-21.76 13.72-21.76 13.72L263 218.74a107.77 107.77 0 0 1-14.18-5.24s9.12-32.86 11.52-37.19 26.31-19.54 26.31-19.54"/><path fill="#ff9a22" d="M291.52 125s13.63 5.66 9.82 25c-2.68 13.6-16.16 15.1-16.16 15.1s-8.83-5.56-7.84-7.42l12-6.25-13.59-6.87-9.81 10.29-7-5.46s10.12-15.88 14.52-22.44 18.06-1.95 18.06-1.95Z"/><path fill="#fff7f0" d="m252.46 147.61 1.23-1.21"/><path fill="#ffe8bc" d="m273.9 157.87 2.4-1.93s-5.3-4.94-12.64-4.26a15.33 15.33 0 0 0-8.18-6.25l-3 2.17"/><path fill="#ffe8bc" d="m276.3 155.94 1.9 13.88-4.3 2.36-3.37-12.69"/><path fill="#F56565" d="m273.9 157.87 2 13.15-2 1.16s-20.4-11.18-20.21-11.43-1.23-13.14-1.23-13.14"/><path fill="#F56565" d="m253.94 146.54 19.96 11.33-1.87 1.05-19.57-11.31 1.48-1.07z"/><path fill="#1371a5" d="m253.94 146.54 19.96 11.33-1.87 1.05-19.57-11.31 1.48-1.07z" opacity=".42"/><path fill="#fdba45" d="M271.34 159.69a1.09 1.09 0 0 1 1.33-1.33 13.3 13.3 0 0 0 4.86.82 1 1 0 0 1 .51.12 29.57 29.57 0 0 0 5.15 4.13l-.56.26a32.52 32.52 0 0 1-2.54 4.17 2.36 2.36 0 0 1-1.91 1 6 6 0 0 1-.78.5 2.24 2.24 0 0 1-2.5-.22 1.19 1.19 0 0 1-.87.16 1.14 1.14 0 0 1-1.23-.12 2.19 2.19 0 0 1-.81-2.94 2.28 2.28 0 0 1-.08-2.9 6.9 6.9 0 0 1 1.65-1.67 2.82 2.82 0 0 1-2.22-1.98ZM251.71 155.08c-.12-.18-.23-.37-.34-.55a1 1 0 0 1 .49-1.49l.15-.14a1.09 1.09 0 0 1 .44-1.37 1.11 1.11 0 0 1 1 0 1 1 0 0 1 .27.11 4.15 4.15 0 0 1 1.67 2.06 1.08 1.08 0 0 1-.5 1.22 1.15 1.15 0 0 1-.38.12 6.67 6.67 0 0 1 .92 1.63c.28.76-.5 1.43-1.19 1.36l.16.22c.6.78-.39 1.83-1.22 1.59a2.25 2.25 0 0 1-1.34-1.21c-.35-.64-.69-1.28-1-1.93a1.13 1.13 0 0 1 .87-1.62Z"/><path fill="#ff9a22" d="M275.32 139.65s-.33 12.26.4 13.6 13.68 6.84 13.68 6.84l8-10.1Z"/><path fill="#974c26" d="M281.91 118.67s-2.28 5-1.4 6.76 5.68.56 5.68.56"/><path fill="#fdba45" d="M281.5 116.13s-.14 10.1 4 11.19 6.34-4 6.34-4 .84-6.82-.5-8.25-7.65-1.8-9.84 1.06Z"/><path fill="#974c26" d="M279.9 115s2.79 4 4.44 5 3.52.43 4.1 1.8-1.49 9.49.41 11 5.6-2.87 7.23-.72.75 6.11 3.31 7 5.58-3.09 3.14-6.25-2.68-4.71-1.28-5.75c2.09-1.55-.07-7.26-2.51-8.34s-3.1-6.62-7.49-8-10.4 1.14-11.35 4.26Z"/><path fill="#f26250" d="M276.3 135.77q0 8.48.33 17c0 .64-1 .64-1 0q-.35-8.48-.33-17a.5.5 0 0 1 1 0ZM277.54 157.32a22.76 22.76 0 0 0 12.83-15.86c.14-.63 1.1-.36 1 .27A23.69 23.69 0 0 1 278 158.19c-.54.26-1-.6-.46-.87Z"/><path fill="url(#d)" d="M185.93 255.44c-7.52 4.7-14.69 8.93-21.84 13.19 7.35 4.05 17.52 9.8 22.53 12.9 4.89-2.64 21.6-12.05 27.58-17Z" opacity=".32"/><ellipse cx="201.77" cy="257.31" fill="#F56565" rx="16.13" ry="11.36"/><ellipse cx="201.78" cy="250.6" fill="#974c26" rx="12.08" ry="4.95"/><path fill="#999a1c" d="M202.58 250.72c1-1.33 1.9-2.73 2.9-4.3 1.28-2 2.48-4.05 3.57-6.16a40.7 40.7 0 0 0 2.61-5.84 48.74 48.74 0 0 0 1.91-6.69c.12-.6.23-1.2.33-1.8 0-.28.05-.25.05-.21v-.52c.11-1.22.19-2.44.2-3.67a30.84 30.84 0 0 0-2.4-12.35 53.25 53.25 0 0 0-8.62 21.09q-.13.68-.24 1.36s-.12.83-.17 1.16l-.13 1.14q-.09.86-.16 1.73c-.18 2.22-.26 4.46-.25 6.69.05 2.79.18 5.58.4 8.37Zm5.14-33.34q.44-.5.9-1a2 2 0 0 0-.06.87 2.77 2.77 0 0 0-.84.13Z"/><path fill="#999a1c" d="M202.89 250.92c.08-1.63.12-3.33.12-5.18 0-2.37-.11-4.75-.33-7.11a40.7 40.7 0 0 0-1-6.32 48.74 48.74 0 0 0-2-6.66c-.22-.57-.45-1.13-.69-1.69-.11-.26-.09-.24-.07-.2l-.25-.46c-.57-1.08-1.16-2.16-1.81-3.19a30.84 30.84 0 0 0-8.69-9.09 53.25 53.25 0 0 0 4.14 22.4q.26.64.53 1.27l.48 1.07.51 1q.39.78.8 1.54c1.05 2 2.19 3.89 3.4 5.76 1.55 2.36 3.17 4.64 4.86 6.86Zm-13.7-30.82q.1-.66.24-1.31a2 2 0 0 0 .42.76 2.77 2.77 0 0 0-.66.55Z"/><path fill="#999a1c" d="M203 251.77c-.48-.91-1-1.84-1.61-2.84a49.12 49.12 0 0 0-2.47-3.73 25.6 25.6 0 0 0-2.56-3.1 30.65 30.65 0 0 0-3.24-2.95l-.92-.69c-.14-.1-.12-.1-.1-.09l-.28-.17c-.66-.4-1.32-.79-2-1.14a19.39 19.39 0 0 0-7.63-2.1 33.49 33.49 0 0 0 9.47 10.75l.7.51.6.42.61.39.93.57q1.81 1.08 3.7 2c1.53.81 3.14 1.52 4.8 2.17Zm-17.35-12.21q-.16-.39-.29-.78a1.26 1.26 0 0 0 .47.27 1.74 1.74 0 0 0-.21.51ZM202.58 250.72c1-1.33 1.9-2.73 2.9-4.3 1.28-2 2.48-4.05 3.57-6.16a40.7 40.7 0 0 0 2.61-5.84 48.74 48.74 0 0 0 1.91-6.69c.12-.6.23-1.2.33-1.8 0-.28.05-.25.05-.21v-.52c.11-1.22.19-2.44.2-3.67a30.84 30.84 0 0 0-2.4-12.35 53.25 53.25 0 0 0-8.62 21.09q-.13.68-.24 1.36s-.12.83-.17 1.16l-.13 1.14q-.09.86-.16 1.73c-.18 2.22-.26 4.46-.25 6.69.05 2.79.18 5.58.4 8.37Zm5.14-33.34q.44-.5.9-1a2 2 0 0 0-.06.87 2.77 2.77 0 0 0-.84.13Z"/><path fill="#999a1c" d="M202.89 250.92c.08-1.63.12-3.33.12-5.18 0-2.37-.11-4.75-.33-7.11a40.7 40.7 0 0 0-1-6.32 48.74 48.74 0 0 0-2-6.66c-.22-.57-.45-1.13-.69-1.69-.11-.26-.09-.24-.07-.2l-.25-.46c-.57-1.08-1.16-2.16-1.81-3.19a30.84 30.84 0 0 0-8.69-9.09 53.25 53.25 0 0 0 4.14 22.4q.26.64.53 1.27l.48 1.07.51 1q.39.78.8 1.54c1.05 2 2.19 3.89 3.4 5.76 1.55 2.36 3.17 4.64 4.86 6.86Zm-13.7-30.82q.1-.66.24-1.31a2 2 0 0 0 .42.76 2.77 2.77 0 0 0-.66.55Z"/><path fill="#999a1c" d="M203 251.77c-.48-.91-1-1.84-1.61-2.84a49.12 49.12 0 0 0-2.47-3.73 25.6 25.6 0 0 0-2.56-3.1 30.65 30.65 0 0 0-3.24-2.95l-.92-.69c-.14-.1-.12-.1-.1-.09l-.28-.17c-.66-.4-1.32-.79-2-1.14a19.39 19.39 0 0 0-7.63-2.1 33.49 33.49 0 0 0 9.47 10.75l.7.51.6.42.61.39.93.57q1.81 1.08 3.7 2c1.53.81 3.14 1.52 4.8 2.17Zm-17.35-12.21q-.16-.39-.29-.78a1.26 1.26 0 0 0 .47.27 1.74 1.74 0 0 0-.21.51Z"/></svg>