<svg xmlns="http://www.w3.org/2000/svg" xmlns:xlink="http://www.w3.org/1999/xlink" width="406" height="306" class="illustration styles_illustrationTablet__1DWOa" data-name="Layer 1" viewBox="0 0 364.7 252.27"><defs><linearGradient id="a" x1="-82.33" x2="668.51" y1="-5.84" y2="555.72" gradientUnits="userSpaceOnUse"><stop offset=".01"/><stop offset=".08" stop-opacity=".69"/><stop offset=".21" stop-opacity=".32"/><stop offset="1" stop-opacity="0"/></linearGradient><linearGradient xlink:href="#a" id="b" x1="169.29" x2="247.42" y1="158.63" y2="406.75"/><linearGradient xlink:href="#a" id="c" x1="188.89" x2="141.12" y1="70.29" y2="393.21"/><linearGradient xlink:href="#a" id="d" x1="181.1" x2="238.34" y1="118.92" y2="383.44"/><linearGradient xlink:href="#a" id="e" x1="141.52" x2="104.71" y1="115.44" y2="364.26"/><linearGradient xlink:href="#a" id="f" x1="140.64" x2="121.06" y1="230.56" y2="280.93"/><linearGradient xlink:href="#a" id="g" x1="227.27" x2="311.18" y1="31.41" y2="764.24"/><linearGradient xlink:href="#a" id="h" x1="270.38" x2="294.31" y1="119.43" y2="236.55"/><linearGradient xlink:href="#a" id="i" x1="215.42" x2="348.7" y1="160.73" y2="150.41"/><linearGradient xlink:href="#a" id="j" x1="208.92" x2="330.56" y1="79.5" y2="186.12"/></defs><path fill="#F56565" d="M182.65 54.48a111 111 0 0 0-8.4 4.32c-32.15 18.3-54.65 52.65-89.85 64.06-9.53 3.09-19.76 3.94-27.46 10.7a82.36 82.36 0 0 0-14.37 17.26 113.52 113.52 0 0 0-16.4 43.54c-4.81 30 1.92 63.78 25.79 84.33 17.94 15.46 44.64 16.24 67.11 12.06 12.89-2.39 25.24-7.05 38-10.12a157.66 157.66 0 0 1 68-1.21c14.83 3 29.16 8.17 44 11.34 10.66 2.29 21.76 3.56 32.64 2.15 10.44-1.35 18.49-6.33 28-10.35 18.09-7.67 36.4-17.45 47.93-33.94a67.52 67.52 0 0 0 11.59-44.14A74.43 74.43 0 0 0 371 162.42c-4.59-5.28-10.59-9.94-12.83-16.66s-2.59-14.56-3.29-21.45c-1.52-15.11-3.34-30.65-10.7-43.93C336 65.62 321.51 55.05 305.7 49.1s-32.9-7.65-49.79-7.85C230.9 41 205.23 44 182.65 54.48Z" opacity=".18" style="isolation:isolate" transform="translate(-24.71 -41.23)"/><path fill="url(#a)" d="m349.48 186.25-17 12L257 251.28a182.54 182.54 0 0 1-18.08 11.48c-5.09 2.75-8 8-14.16 9.4a24.51 24.51 0 0 1-9.23-.16 86.43 86.43 0 0 1-14.61-3.71c-.58-.2-1.41-.32-1.67.24s1.14.5.65.12c-44.25-6-86.53-22-130.38-30.4a2.39 2.39 0 0 1-.45-4.57c3.53-1.44 7.38-2 11.27-2.76 7-1.29 13.9-2.55 20.88-3.69a351 351 0 0 1 42.53-4.72c23.68-1 47.58 1.53 71-2.14 22.25-3.48 43.19-12.37 63.89-21.27 5-2.14 10.09-4.36 14-8.12 3.07-2.95 5.53-6.84 9.44-8.78 4.06-2 9-1.65 13.36-1.45 11.5.51 22.86 2.85 34.04 5.5Z" transform="translate(-24.71 -41.23)"/><path fill="#F56565" d="m46.73 182.13 98.84-43a11.86 11.86 0 0 1 6.93-1.15l122.25 10.39c2.34.33 1.92 10.39 0 12l-72.2 61.46a18.15 18.15 0 0 1-16.17 4.06L47.6 192.14c-1.77-.43-2.53-9.19-.87-10.01Z"/><path fill="url(#b)" d="m71.44 223.36 98.84-43a11.86 11.86 0 0 1 6.93-1.15l122.25 10.39c2.34.33 1.92 10.39 0 12l-72.2 61.46a18.15 18.15 0 0 1-16.17 4.06L72.31 233.37c-1.77-.43-2.53-9.19-.87-10.01Z" transform="translate(-24.71 -41.23)"/><path fill="#F56565" d="m274.78 153.24-72.2 61.46a18.13 18.13 0 0 1-16.17 4.07L47.6 185.01c-1.77-.43-2-3.23-.35-4.06l38.04-21.47 10-5.62 30.41-17.09a11.85 11.85 0 0 1 6.93-1.15l140.92 12.26c2.34.28 3.12 3.75 1.23 5.36Z"/><path fill="url(#c)" d="m132.62 138.97 128.81 19.05-39.65 32.2-132.19-26.75 43.03-24.5z"/><path fill="url(#d)" d="M287.7 202.73c-.38 1.15-1.63 1.74-2.76 2.19a244.67 244.67 0 0 1-25.16 7.92c-8.09 2.23-16.53 4.48-24.79 3a9.27 9.27 0 0 0-3.18-.26c-1.76.32-3.06 1.75-4.43 2.88-6.83 5.62-16.81 4.34-25.51 2.76a65.89 65.89 0 0 0 .56-8.65 405.51 405.51 0 0 1-69.53-4.74c-5-.77-18.51-1.38-21.92-5.53a5.35 5.35 0 0 1-1-1.56l10-5.62a6.08 6.08 0 0 1 1.34.21 247.45 247.45 0 0 0 81.82 8.5c.71-3.59-3-8.08-.18-10.46a5.06 5.06 0 0 1 3.19-.93 25.7 25.7 0 0 1 12.22 2.56c2.25 1.1 4.37 2.54 6.8 3.16a22.11 22.11 0 0 0 7.22.23 414.86 414.86 0 0 1 46.11-.88c2.53.09 5.18.24 7.33 1.57 1.26.76 2.35 2.24 1.87 3.65Z" transform="translate(-24.71 -41.23)"/><path fill="url(#e)" d="m119.14 171.45 53.08 10.73-27.45 22.39-55.18-12.38 29.55-20.74z"/><path fill="url(#f)" d="M117.31 237.3a8.59 8.59 0 0 0 5.47 4.47c3.9.94 26.63 6.76 26.63 6.76s3.7.44 5.75-2Z" transform="translate(-24.71 -41.23)"/><path fill="#F56565" d="m128.58 135.56 145.38 20.69a4.22 4.22 0 0 0 4.72-3.35l20.74-104.73a8.11 8.11 0 0 0-7.25-9.66L148.6 25.92a8.11 8.11 0 0 0-8.77 7.2Z"/><path fill="url(#g)" d="m153.29 176.79 145 20.63a4.63 4.63 0 0 0 5.19-3.68L324.13 89.4a8.11 8.11 0 0 0-7.25-9.66L173.31 67.15a8.11 8.11 0 0 0-8.77 7.2Z" transform="translate(-24.71 -41.23)"/><path fill="#fff" d="m271.33 150.23 20.65-105.67-146.41-13.52-11.64 100.05 137.4 19.14z"/><path fill="#F56565" d="M259.29 63.77 156.6 53.08l2.33-13 102.72 10.69a6.21 6.21 0 0 1 5.72 7.24 7.4 7.4 0 0 1-8.08 5.76Z"/><path fill="#fff" d="m156.6 53.08 82.95 8.65 2.33-13.04-82.95-8.66-2.33 13.05z" opacity=".56"/><ellipse cx="277.87" cy="96.99" fill="none" stroke="#fff" stroke-miterlimit="10" stroke-width="1.04" rx="3.41" ry="3.13" transform="rotate(-21.36 156.257 141.899)"/><path fill="none" stroke="#fff" stroke-miterlimit="10" stroke-width="1.04" d="M255.29 61.19c-.07-.17-.94-2.54-.94-2.54"/><path fill="#F56565" d="M258.3 82.59 153.5 71.37l.55-1.72 104.79 11.22-.54 1.72zM190.76 68.83l-35.39-4.19.72-3.08 35.4 3.86-.73 3.41zM257 89.52 152.2 78.3l.54-1.72 104.8 11.22-.54 1.72z" opacity=".18" style="isolation:isolate"/><g fill="#F56565" opacity=".66" style="isolation:isolate"><path d="m185.13 96.51-35.39-4.18.72-3.09 35.4 3.86-.73 3.41zM252.39 110.89l-104.8-11.22.55-1.73 104.8 11.23-.55 1.72zM250 118.91l-104.8-11.22.55-1.72 104.79 11.22-.54 1.72z" opacity=".18" style="isolation:isolate"/></g><path fill="#F56565" d="m247.97 136.24-104.69-13.67.54-1.71 104.69 13.67-.54 1.71z" opacity=".18" style="isolation:isolate"/><path fill="#fff" d="M189.88 126.14s-107.1 35.46-121.74 3.63 65.53-40.55 65.53-40.55-93.68 9.33-72.66 48.65 135.26.44 135.26.44Z"/><path fill="#F56565" d="M190.13 124.67a9 9 0 0 0 1.16 4.15l2.64 5.64a13.74 13.74 0 0 0 2.34 3.85 7 7 0 0 0 6 2 3 3 0 0 0 2.46-1.6c.45-1.17-.31-2.42-.92-3.51-1.64-2.93-2.34-6.27-3.12-9.53-.6-2.54-1.82-6.12-4.92-6.48-2.74-.32-5.48 2.81-5.64 5.48ZM217.03 111.53s-22.66-20.73-44.81 0c0 0 17.12-2.21 22.4 7.22ZM226.29 130.48s-1.08 30.7-31.39 32c0 0 13.57-10.67 10.54-21.05Z"/><path fill="#fff" d="M194.62 118.77s71.45-41 111.62-34.44c0 0-9.08 29.52-100.83 57.1Z"/><path fill="url(#h)" d="M331 125.54s-9.08 29.52-100.83 57.1l-3.27-6.87-7.57-15.77s63.42-36.44 104.35-35.14a56.19 56.19 0 0 1 7.32.68Z" transform="translate(-24.71 -41.23)"/><path fill="#fff" d="M306.29 84.31c-6.35 8.33-28.27 23.68-73.33 40.05q-3.82 1.4-7.87 2.8-10.65 3.68-22.9 7.38l-7.56-15.77s7.81-4.69 19.75-10.65c6.3-3.15 13.75-6.65 21.81-10 22.49-9.35 49.75-17.6 70.1-13.81Z"/><path fill="url(#i)" d="M275.94 140.85c-3.81 1.59-8.09 1.33-12.21 1.6a15.79 15.79 0 0 0-3.62.57 18.67 18.67 0 0 0-6.25 4 1.36 1.36 0 0 0-.52.69 1.32 1.32 0 0 0 .2.83 41.6 41.6 0 0 0 3.14 5.35c1.4 2 3.05 4.13 3 6.59a9 9 0 0 1-2.09 5.12l-.3.42a56.16 56.16 0 0 1-4.69 5.53c-1.24 1.28-.44 5.19-3.44 4.25-2.61-.81-1.34-3.91-.45-5.54l1-1.86 1.68-3.11c1.28-2.35 2.58-5.14 1.5-7.59-.76-1.71-2.51-2.74-4.15-3.66a63.69 63.69 0 0 0-9.7-4.69c6.3-3.15 13.75-6.65 21.81-10a114.41 114.41 0 0 0 15.82.23c.44.42-.18 1.04-.73 1.27Z" transform="translate(-24.71 -41.23)"/><circle cx="242.33" cy="109.06" r="8.22" fill="#F56565"/><circle cx="242.33" cy="108.78" r="5.6" fill="url(#j)"/><path fill="#fcab9a" d="M230.04 91.16c0 .05-1.18-.15-1.15-.09a2.56 2.56 0 0 0 1 .72 36.1 36.1 0 0 0 4.34 1.44c1.47.15 2.18-1.24 2.64-2.41.37-.94.75-1.88 1.14-2.81a5.6 5.6 0 0 0 .56-1.91 1 1 0 0 0-.06-.45.84.84 0 0 0-.45-.4 1.22 1.22 0 0 0-.92 0c-.54.23-.79.84-1.06 1.36-.63 1.19-1.62 2.16-2.16 3.39a1.56 1.56 0 0 1-1.11-.37l-1.75-1.14a.64.64 0 0 0-.29-.13.53.53 0 0 0-.45.21 2.38 2.38 0 0 0-.54 1.34 1.94 1.94 0 0 0 0 .76 1.92 1.92 0 0 0 .26.49Z"/><path fill="#F56565" d="m231.39 88.44.62.38c.09 0 .18.1.21.2a.41.41 0 0 1 0 .22l-.41 1.82a5.94 5.94 0 0 1-.86 2.29c-.24.33-2-.89-2.3-1.05a7.54 7.54 0 0 1-1.93-1.85 3.07 3.07 0 0 1-.55-1 4.11 4.11 0 0 1 .4-2.71c.7-1.37 1.88-.69 2.77.15a13.71 13.71 0 0 0 2.05 1.55Z"/><path fill="#fcab9a" d="M220.1 133.86a.66.66 0 0 0 .2.34 14.39 14.39 0 0 0 4.99 3.17.79.79 0 0 0 .37.1.53.53 0 0 0 .42-.55 1.41 1.41 0 0 0-.27-.7 13.34 13.34 0 0 0-1.23-1.65 2.1 2.1 0 0 1-.75-1.39 3.54 3.54 0 0 1 .21-.79c.3-1.13-1.58-1.36-2.37-1.09a3.28 3.28 0 0 0-1.57 2.56Z"/><path fill="#473f47" d="M215.5 102.1s-3.41 4.76.1 9c2.43 2.94 6.08 4.94 9.44 6.62.59.3 1.29.54 1.86.9 1.11.7.43 1.29-.16 2.22q-2.22 3.57-4.48 7.09a10 10 0 0 0-1.75 4l3.81 1.16a72.82 72.82 0 0 1 7-9.93c1.13-1.34 2.59-3 2.38-4.86a9 9 0 0 0-2.18-4.63l-7.13-8.28Z"/><path fill="#fcab9a" d="M232.06 79.35c.12.35.46.63.51 1s-.33.81-.58 1.22-.42 1.2-.76 1.75a.63.63 0 0 1-.28.28 1 1 0 0 1-.34.06 5.08 5.08 0 0 1-1.34-.22.4.4 0 0 0-.26-.06.36.36 0 0 0-.16.2 7.17 7.17 0 0 0-.71 3.38c0 .38 0 .86-.31 1.05a.62.62 0 0 1-.38.1c-.88 0-1.55-.79-2-1.57a10.2 10.2 0 0 1-.85-2.21 1.79 1.79 0 0 1-.08-.69 2.3 2.3 0 0 1 .28-.77 15 15 0 0 0 1.07-2.71 12.32 12.32 0 0 1 1.24-3.51 2 2 0 0 1 .95-.77 2.54 2.54 0 0 1 1.34.07 3.56 3.56 0 0 1 2.27 1.36c.17.26.25 1.59.39 2.04Z"/><path fill="#F56565" d="M223.29 106.01a5.38 5.38 0 0 1-2.29-.13 11.88 11.88 0 0 0-3.32-.19 12.89 12.89 0 0 0-1.93.65 3.64 3.64 0 0 1-3-.51v-.46c.15-1.34-.41-3.24 0-4.53 1.47-5.15 2.72-9 5.65-13.42.84-1.27 4.15-2.9 5.51-3.58a2.49 2.49 0 0 1 1-.29 2.61 2.61 0 0 1 1.15.32c1.21.59 1.68 1.69 2.27 2.83a11 11 0 0 1 1.38 3.77c.15 1.72.76 3.33-.22 4.93-1.35 2.25-3.59 3.77-4.84 6.2a2.34 2.34 0 0 0-.36 1.17c0 .58.41 1.11.41 1.69a1.78 1.78 0 0 1-1.41 1.55Z"/><path fill="#fcab9a" d="M231 97.9c.48.22 1 .41 1.41.57a28.78 28.78 0 0 0 7.25 1.32 43.57 43.57 0 0 0 9.34.17 8.36 8.36 0 0 0 3.6-1.13c.32-.21.65-.59.49-.94a.86.86 0 0 0-.4-.35 7.26 7.26 0 0 0-3.91-.82c0-.47-.12-1.07-.58-1.11s-.73.59-1 1c-.6 1-2 1.11-3.12 1.1a33.18 33.18 0 0 1-7.7-.79 17.06 17.06 0 0 1-3.66-1.33c-.75-.38-2.26-1.95-3-1.11s-1.43 1.4-.43 2.29A6.78 6.78 0 0 0 231 97.9Z"/><path fill="#F56565" d="M227.1 88.25s3.92 5.53 4.49 5.86-3.52 4.35-3.52 4.35-4.74-5.13-5.29-7.75 1.9-4.42 4.32-2.46Z"/><path fill="#fc682d" d="M231.64 76.77a2.09 2.09 0 0 1-1.43.84 10.57 10.57 0 0 1-1.49.13s-.09 0-.12 0a.2.2 0 0 0-.05.15 2.81 2.81 0 0 1-1 2 .49.49 0 0 0-.18.2.55.55 0 0 0 0 .36 3.52 3.52 0 0 1 0 1.21 1.86 1.86 0 0 1-.54 1.07.38.38 0 0 0-.15.21.39.39 0 0 0 .06.21 1.71 1.71 0 0 1-.08 1.27 3.21 3.21 0 0 0-2.68-.58 1.34 1.34 0 0 0-.76.32c-1.34 1.41-2.44 3.08-3.85 4.44-.6.58-1.27 1.09-1.83 1.72a12.55 12.55 0 0 0-2 3.43 12.47 12.47 0 0 1-1.45 2.75 3.94 3.94 0 0 1-2.56 1.61 3.51 3.51 0 0 1-2.67-.92 4.39 4.39 0 0 1-1.2-4.62 1.16 1.16 0 0 0 .1-.81 1.2 1.2 0 0 0-.32-.39 3.43 3.43 0 0 1 0-4.75c.67-.63 2.28-1.24 2.37-2.28s-.84-2.07-.46-3.27a3.38 3.38 0 0 1 .59-1 5.07 5.07 0 0 1 1.9-1.67 7.45 7.45 0 0 1 2.4-.39c2.62-.18 5.36-1 7.09-3a12.86 12.86 0 0 1 1.28-1.46 5.39 5.39 0 0 1 1.82-.92 7.18 7.18 0 0 1 4.94-.07 4 4 0 0 1 2.31 2.61 1.93 1.93 0 0 1-.04 1.6Z"/><path fill="#fff" d="M231.35 81.1a10.92 10.92 0 0 1-1.15-.1c-.11.21.39 1 .5 1.06a.29.29 0 0 0 .38 0 .56.56 0 0 0 .09-.21l.18-.76"/><circle cx="230.45" cy="79.1" r=".3" fill="#231f20"/><rect width="1.44" height="3.94" x="260.99" y="124.06" fill="#F56565" rx=".5" transform="rotate(10.78 467.98 -25.495)"/><path fill="#fcab9a" d="M236.72 83.12a1.44 1.44 0 0 0-1.19.91 1.63 1.63 0 0 0 .64 1.74 4.09 4.09 0 0 0 1.84.67.65.65 0 0 0 .58-.08.64.64 0 0 0 .16-.34 3.47 3.47 0 0 0 .19-1.39 2.11 2.11 0 0 0-2.22-1.51Z"/><path fill="#F56565" d="m234.9 80.97-.1 1.14a.59.59 0 0 0 .44.7 15.55 15.55 0 0 1 5.53 1.44 19.29 19.29 0 0 1 2.68 1.82c.34.27.83 0 .91-.58l.89-6c.08-.53-.3-.9-.7-.7-1.67.85-5.42 2.41-8.89 1.45-.37-.09-.72.26-.76.73Z"/><path fill="#473f47" d="M220.34 132.63a2.41 2.41 0 0 0-1 1.32.84.84 0 0 0 0 .52 1 1 0 0 0 .31.38 21.93 21.93 0 0 0 5.34 3.51 2.18 2.18 0 0 0 .79.23.79.79 0 0 0 .72-.31 1 1 0 0 0 .14-.53 2.55 2.55 0 0 0-2.57-2.63 4.56 4.56 0 0 1-.74 0 1.88 1.88 0 0 1-.64-.3 9.72 9.72 0 0 1-1.48-1.06 13.53 13.53 0 0 1-.87-1.13Z"/></svg>